<?xml version="1.0" encoding="utf-8"?>
<!-- Generator: Adobe Illustrator 24.3.0, SVG Export Plug-In . SVG Version: 6.00 Build 0)  -->
<svg version="1.1" id="Layer_1" xmlns="http://www.w3.org/2000/svg" xmlns:xlink="http://www.w3.org/1999/xlink" x="0px" y="0px"
	 viewBox="0 0 300 150" enable-background="new 0 0 300 150" xml:space="preserve">
<g>
	<rect fill="#E3120B" width="300" height="150"/>
	<g>
		<path fill="#FFFFFF" d="M47.356,64.857V40.857h15.196v4.929h-9.689v4.352h8.941v4.795h-8.941v4.963h10.335v4.963H47.356z"/>
		<path fill="#FFFFFF" d="M78.973,65.266c-6.765,0-12.103-4.623-12.103-12.34c0-7.718,5.439-12.512,12.239-12.512
			c3.468,0,5.779,0.545,7.547,1.768v5.1c-1.768-1.496-4.182-2.073-6.493-2.073c-4.386,0-7.547,2.651-7.547,7.615
			c0,5.201,3.535,7.649,7.785,7.649c2.346,0,4.385-0.748,6.289-1.904v4.861C84.719,64.62,82.237,65.266,78.973,65.266z"/>
		<path fill="#FFFFFF" d="M101.924,65.266c-6.901,0-11.627-4.895-11.627-12.408c0-7.479,4.93-12.443,12.001-12.443
			c7.173,0,11.627,5.031,11.627,12.171C113.925,60.439,108.996,65.266,101.924,65.266z M102.264,45.242
			c-3.569,0-6.221,2.447-6.221,7.581c0,5.065,2.549,7.649,6.119,7.649c3.604,0,6.051-2.516,6.051-7.547
			C108.213,47.724,105.766,45.242,102.264,45.242z"/>
		<path fill="#FFFFFF" d="M119.299,64.857V40.857h5.133c7.684,10.845,8.669,12.204,10.199,14.55
			c-0.102-2.686-0.136-6.322-0.136-14.55h5.27v24.001h-4.726c-7.888-11.627-9.213-13.564-10.505-15.604
			c0.067,1.938,0.067,3.365,0.067,15.604H119.299z"/>
		<path fill="#FFFFFF" d="M156.425,65.266c-6.901,0-11.627-4.895-11.627-12.408c0-7.479,4.93-12.443,12.001-12.443
			c7.174,0,11.627,5.031,11.627,12.171C168.426,60.439,163.497,65.266,156.425,65.266z M156.765,45.242
			c-3.569,0-6.221,2.447-6.221,7.581c0,5.065,2.55,7.649,6.119,7.649c3.604,0,6.051-2.516,6.051-7.547
			C162.714,47.724,160.267,45.242,156.765,45.242z"/>
		<path fill="#FFFFFF" d="M173.801,64.857V40.857h5.949c4.147,6.595,4.93,7.888,5.847,9.485c0.952-1.666,1.7-2.924,5.882-9.485
			h5.882v24.001h-5.439c0-11.219,0.033-13.633,0.136-16.318c-0.952,1.53-1.87,2.958-6.493,9.961
			c-4.521-6.969-5.439-8.498-6.392-9.961c0.068,2.686,0.068,5.27,0.068,16.318H173.801z"/>
		<path fill="#FFFFFF" d="M203.653,64.857V40.857h5.541v24.001H203.653z"/>
		<path fill="#FFFFFF" d="M214.363,57.412c2.346,2.006,5.983,3.061,8.499,3.061c2.346,0,3.331-0.782,3.331-2.244
			c0-1.088-0.714-1.699-2.651-2.447l-3.128-1.19c-4.249-1.563-5.983-3.638-5.983-7.207c0-4.079,2.958-6.97,9.043-6.97
			c2.517,0,5.372,0.715,7.004,1.803v5.337c-1.972-1.462-5.065-2.346-7.377-2.346c-2.143,0-3.094,0.815-3.094,2.073
			c0,1.225,0.714,1.7,2.312,2.312l3.128,1.189c5.167,1.973,6.357,4.113,6.357,7.275c0,3.91-2.687,7.207-9.214,7.207
			c-3.331,0-6.493-1.088-8.227-2.379V57.412z"/>
		<path fill="#FFFFFF" d="M240.405,64.857V45.854h-6.595v-4.997h18.834v4.997h-6.697v19.004H240.405z"/>
		<path fill="#FFFFFF" d="M86.336,105.658V81.656h5.541v24.002H86.336z"/>
		<path fill="#FFFFFF" d="M98.168,105.658V81.656h5.949c4.147,6.596,4.93,7.887,5.847,9.484c0.952-1.666,1.7-2.924,5.882-9.484
			h5.882v24.002h-5.439c0-11.219,0.033-13.633,0.136-16.318c-0.952,1.529-1.87,2.957-6.493,9.961c-4.521-6.97-5.439-8.5-6.392-9.961
			c0.068,2.686,0.068,5.27,0.068,16.318H98.168z"/>
		<path fill="#FFFFFF" d="M128.02,105.658V81.656h7.104c2.006,0,4.012,0.17,5.202,0.477c3.434,0.814,5.643,3.025,5.643,7.377
			c0,3.467-1.598,6.018-4.385,7.24c-1.632,0.681-4.012,1.021-6.357,1.021h-1.666v7.888H128.02z M135.09,93.249
			c1.292,0,2.482-0.136,3.332-0.476c1.258-0.51,1.836-1.564,1.836-2.958c0-1.7-0.884-2.687-2.447-3.128
			c-0.748-0.203-1.904-0.271-2.992-0.271h-1.258v6.833H135.09z"/>
		<path fill="#FFFFFF" d="M146.516,105.658l9.077-24.002h5.304l9.145,24.002h-5.745l-2.074-5.372h-7.785l-2.006,5.372H146.516z
			 M160.829,95.765c-1.802-4.929-2.142-5.949-2.516-7.241c-0.408,1.326-0.782,2.312-2.516,7.241H160.829z"/>
		<path fill="#FFFFFF" d="M184.493,106.066c-6.765,0-12.103-4.625-12.103-12.342s5.439-12.51,12.239-12.51
			c3.468,0,5.779,0.543,7.547,1.768v5.1c-1.768-1.496-4.182-2.074-6.493-2.074c-4.386,0-7.547,2.652-7.547,7.615
			c0,5.201,3.535,7.648,7.785,7.648c2.346,0,4.385-0.747,6.289-1.903v4.862C190.239,105.42,187.756,106.066,184.493,106.066z"/>
		<path fill="#FFFFFF" d="M201.426,105.658V86.654h-6.596v-4.998h18.834v4.998h-6.697v19.004H201.426z"/>
	</g>
</g>
</svg>
