<?xml version="1.0" encoding="UTF-8" standalone="no"?>
<svg
   xmlns:dc="http://purl.org/dc/elements/1.1/"
   xmlns:cc="http://creativecommons.org/ns#"
   xmlns:rdf="http://www.w3.org/1999/02/22-rdf-syntax-ns#"
   xmlns:svg="http://www.w3.org/2000/svg"
   xmlns="http://www.w3.org/2000/svg"
   xmlns:sodipodi="http://sodipodi.sourceforge.net/DTD/sodipodi-0.dtd"
   xmlns:inkscape="http://www.inkscape.org/namespaces/inkscape"
   version="1.1"
   id="Слой_1"
   x="0px"
   y="0px"
   viewBox="0 0 365.5 116.1"
   style="enable-background:new 0 0 365.5 116.1;"
   xml:space="preserve"
   sodipodi:docname="logo_tm.svg"
   inkscape:version="1.0.1 (c497b03c, 2020-09-10)"><metadata
   id="metadata52"><rdf:RDF><cc:Work
       rdf:about=""><dc:format>image/svg+xml</dc:format><dc:type
         rdf:resource="http://purl.org/dc/dcmitype/StillImage" /></cc:Work></rdf:RDF></metadata><defs
   id="defs50" /><sodipodi:namedview
   pagecolor="#ffffff"
   bordercolor="#666666"
   borderopacity="1"
   objecttolerance="10"
   gridtolerance="10"
   guidetolerance="10"
   inkscape:pageopacity="0"
   inkscape:pageshadow="2"
   inkscape:window-width="1344"
   inkscape:window-height="744"
   id="namedview48"
   showgrid="false"
   inkscape:zoom="2.0683995"
   inkscape:cx="174.04762"
   inkscape:cy="58.05"
   inkscape:window-x="0"
   inkscape:window-y="23"
   inkscape:window-maximized="0"
   inkscape:current-layer="Слой_1" />
<style
   type="text/css"
   id="style10">
	.st0{fill:#017AC1;}
	.st1{fill:#F51C28;}
</style>
<title
   id="title12">Group 12</title>
<desc
   id="desc14">Created with Sketch.</desc>
<g
   id="Page-1">
	<g
   id="Group-12"
   transform="translate(0.040000, 0.000000)">
		<g
   id="Group"
   transform="translate(7.960000, 0.000000)">
			<path
   id="Path"
   class="st0"
   d="M88.8,82.3H71.9V51c0-3.7-0.7-6.3-2-8s-3.1-2.5-5.2-2.5c-1.1,0-2.3,0.3-3.4,0.7     c-1.2,0.5-2.2,1.2-3.2,2.1c-1,0.9-1.9,1.9-2.7,3.1s-1.5,2.5-2,3.9v31.9h-17V51c0-3.7-0.7-6.3-2-8s-3.1-2.5-5.2-2.5     c-2.3,0-4.5,0.9-6.6,2.7s-3.7,4.2-4.7,7.2v31.9H1V26.7l15.2,8.4V36c2-3.4,4.8-6,8.3-7.7c3.5-1.8,7.6-2.6,12.2-2.6     c2.3,0,4.4,0.3,6.1,0.9c1.7,0.6,3.2,1.3,4.5,2.3s2.3,2.1,3.1,3.4s1.3,2.7,1.7,4.2c2.1-3.5,4.9-6.1,8.4-8s7.4-2.8,11.9-2.8     c3.5,0,6.4,0.6,8.5,2c2.2,1.3,3.8,3,5,5.1s2,4.4,2.4,6.8c0.4,2.5,0.6,4.9,0.6,7.2L88.8,82.3L88.8,82.3z" />
			<path
   id="Shape"
   class="st0"
   d="M98.9,15.3V0h16.9v15.4L98.9,15.3L98.9,15.3z M98.9,82.3V26.7h16.9v55.6H98.9z" />
			<path
   class="st0"
   d="M148.1,82.5c-3.7,0-7-0.7-10.1-2.2c-3-1.5-5.6-3.5-7.8-6s-3.8-5.5-5-8.9s-1.8-7-1.8-10.9     c0-4.1,0.6-7.9,1.9-11.4s3-6.5,5.3-9.1s5-4.6,8.2-6.1s6.7-2.2,10.5-2.2c4.2,0,7.9,0.9,11.1,2.7c3.1,1.8,5.7,4.3,7.6,7.5v-9.1     h14.7v51.8c0,4.2-0.8,8.1-2.4,11.4c-1.6,3.4-3.8,6.3-6.6,8.6c-2.8,2.4-6.2,4.2-10.2,5.4c-3.9,1.3-8.3,1.9-13,1.9     c-6,0-11.1-1-15.4-2.9c-4.2-1.9-7.9-4.7-11.1-8.3l9.1-9.2c2.1,2.3,4.6,4.2,7.6,5.6s6.3,2.1,9.7,2.1c2.1,0,4-0.3,5.8-0.8     c1.8-0.6,3.5-1.4,4.9-2.6s2.5-2.7,3.3-4.6s1.2-4.1,1.2-6.7v-5.4c-1.7,3.1-4.1,5.4-7.3,7C155.2,81.7,151.8,82.5,148.1,82.5z      M153.9,69c2.6,0,4.9-0.7,7-2.2s3.6-3.3,4.8-5.6V49.6c-1.1-3-2.9-5.3-5.2-7s-4.8-2.6-7.4-2.6c-1.8,0-3.5,0.4-5,1.2     s-2.8,1.9-3.9,3.3c-1.1,1.4-1.9,3-2.5,4.8s-0.9,3.7-0.9,5.6c0,2,0.3,3.9,1,5.7c0.7,1.7,1.6,3.2,2.8,4.5s2.6,2.3,4.2,3     C150.3,68.7,152,69,153.9,69z"
   id="path18" />
			<path
   class="st0"
   d="M219.6,83.3c-4.7,0-9-0.8-12.7-2.3c-3.7-1.6-6.8-3.7-9.4-6.3c-2.5-2.7-4.5-5.7-5.8-9.2s-2-7.1-2-11     s0.6-7.5,2-11c1.3-3.5,3.2-6.6,5.8-9.2c2.5-2.6,5.7-4.8,9.4-6.3c3.7-1.6,7.9-2.4,12.7-2.4c4.7,0,8.9,0.8,12.6,2.4     s6.8,3.7,9.3,6.3c2.5,2.7,4.5,5.7,5.8,9.2s2,7.1,2,11s-0.7,7.5-2,11s-3.2,6.6-5.8,9.2c-2.5,2.7-5.7,4.8-9.4,6.3     C228.5,82.5,224.3,83.3,219.6,83.3z M207.2,54.5c0,4.4,1.2,7.9,3.5,10.5c2.3,2.7,5.3,4,8.9,4c1.8,0,3.4-0.3,4.9-1.1     s2.8-1.7,3.9-3c1.1-1.3,2-2.8,2.6-4.6s1-3.8,1-5.9c0-4.4-1.2-7.9-3.5-10.5s-5.3-4-8.8-4c-1.8,0-3.4,0.3-4.9,1.1     c-1.5,0.7-2.8,1.7-3.9,3c-1.1,1.3-2,2.8-2.6,4.6C207.5,50.4,207.2,52.4,207.2,54.5z"
   id="path20" />
			<path
   class="st0"
   d="M344.4,82.3h-16.9V51c0-3.7-0.7-6.3-2-8s-3.1-2.5-5.2-2.5c-1.1,0-2.3,0.3-3.4,0.7c-1.2,0.5-2.2,1.2-3.2,2.1     c-1,0.9-1.9,1.9-2.7,3.1s-1.5,2.5-2,3.9v31.9h-17V51c0-3.7-0.7-6.3-2-8s-3.1-2.5-5.2-2.5c-2.3,0-4.5,0.9-6.6,2.7     s-3.7,4.2-4.7,7.2v31.9h-16.9V26.7h15.3V36c2-3.4,4.8-6,8.3-7.7c3.5-1.8,7.6-2.6,12.2-2.6c2.3,0,4.4,0.3,6.1,0.9s3.2,1.3,4.5,2.3     s2.3,2.1,3.1,3.4c0.8,1.3,1.3,2.7,1.7,4.2c2.1-3.5,4.9-6.1,8.4-8s7.4-2.8,11.9-2.8c3.5,0,6.4,0.6,8.5,2c2.1,1.3,3.8,3,5,5.1     s2,4.4,2.4,6.8c0.4,2.5,0.6,4.9,0.6,7.2v35.5H344.4z"
   id="path22" />
		</g>
		<polygon
   class="st1"
   points="24.1,0 24.1,24 24,24 0,0   "
   id="polygon25" />
		<polygon
   class="st0"
   points="24.1,35.1 9,19.9 9,31 9,47.9   "
   id="polygon27" />
		<g
   transform="translate(263.960000, 92.000000)"
   id="g37">
			<path
   class="st1"
   d="M14.6,7c1.3,0.7,2.3,1.8,3.1,3.1s1.1,2.9,1.1,4.6s-0.4,3.3-1.1,4.6s-1.8,2.4-3.1,3.1s-2.8,1.1-4.5,1.1     c-1.2,0-2.2-0.2-3.2-0.6s-1.8-1-2.4-1.8v2.2H0.7V-0.5h4v8.7c0.7-0.8,1.5-1.3,2.4-1.7s1.9-0.6,3-0.6C11.8,5.9,13.3,6.3,14.6,7z      M13.3,18.5c0.9-1,1.4-2.3,1.4-3.9s-0.5-2.9-1.4-3.9c-1-1-2.2-1.5-3.6-1.5c-1,0-1.8,0.2-2.6,0.7c-0.8,0.4-1.4,1.1-1.8,1.9     c-0.4,0.8-0.7,1.8-0.7,2.8s0.2,2,0.7,2.8s1.1,1.4,1.8,1.9C7.9,19.7,8.7,20,9.7,20C11.1,20,12.4,19.5,13.3,18.5z"
   id="path29" />
			<path
   class="st1"
   d="M37.9,7.7c1.3,1.2,2,3,2,5.5v10h-3.8v-2.1c-0.5,0.8-1.2,1.3-2.1,1.7s-2,0.6-3.3,0.6s-2.4-0.2-3.4-0.7     c-1-0.4-1.7-1-2.2-1.8s-0.8-1.7-0.8-2.6c0-1.5,0.6-2.8,1.7-3.7s2.9-1.4,5.4-1.4h4.4v-0.3c0-1.2-0.4-2.1-1.1-2.8     c-0.7-0.6-1.8-1-3.2-1c-1,0-1.9,0.2-2.8,0.4c-0.9,0.3-1.7,0.7-2.4,1.3l-1.6-2.9c0.9-0.7,2-1.2,3.2-1.6c1.3-0.4,2.6-0.5,4-0.5     C34.6,5.9,36.5,6.5,37.9,7.7z M34.2,19.8c0.8-0.5,1.3-1.1,1.6-2v-2h-4.1c-2.3,0-3.5,0.8-3.5,2.3c0,0.7,0.3,1.3,0.9,1.7     c0.6,0.4,1.4,0.6,2.4,0.6C32.6,20.5,33.5,20.3,34.2,19.8z"
   id="path31" />
			<path
   class="st1"
   d="M63.1,7.8c1.3,1.3,2,3.1,2,5.6v9.8h-4v-9.3c0-1.5-0.4-2.6-1.1-3.4c-0.7-0.8-1.7-1.1-3-1.1     c-1.5,0-2.6,0.4-3.5,1.3c-0.8,0.9-1.3,2.2-1.3,3.8v8.6h-4v-17H52v2.2c0.7-0.8,1.5-1.4,2.5-1.8s2.1-0.6,3.4-0.6     C60.1,5.9,61.8,6.6,63.1,7.8z"
   id="path33" />
			<polygon
   class="st1"
   points="80.3,15.9 77.3,18.7 77.3,23.2 73.3,23.2 73.3,-0.5 77.3,-0.5 77.3,13.8 85.6,6.1 90.4,6.1      83.3,13.3 91.1,23.2 86.2,23.2    "
   id="polygon35" />
		</g>
	</g>
</g>

<g
   aria-label="®"
   id="text56"
   style="font-style:normal;font-weight:normal;font-size:24.547px;line-height:1.25;font-family:sans-serif;fill:#017ac1;fill-opacity:1;stroke:none;stroke-width:0.613675"><path
     d="m 364.68422,12.105505 q 0,4.290931 -3.0444,7.335334 -3.03242,3.032418 -7.32335,3.032418 -4.29093,0 -7.33534,-3.032418 -3.03241,-3.044403 -3.03241,-7.335334 0,-4.290931 3.03241,-7.3233486 3.04441,-3.0444035 7.33534,-3.0444035 4.29093,0 7.32335,3.0444035 3.0444,3.0324176 3.0444,7.3233486 z m -1.39036,0 q 0,-3.7156107 -2.63688,-6.3764672 -2.6249,-2.6608566 -6.34051,-2.6608566 -3.71561,0 -6.3525,2.6608566 -2.6249,2.6608565 -2.6249,6.3764672 0,3.71561 2.6249,6.376467 2.63689,2.660856 6.3525,2.660856 3.71561,0 6.34051,-2.660856 2.63688,-2.660857 2.63688,-6.376467 z m -2.30128,5.27377 h -2.67284 l -3.96731,-4.254974 h -1.94171 v 4.254974 h -1.97766 V 6.4122307 h 3.73958 q 1.12667,0 1.8578,0.095887 0.73114,0.095887 1.43831,0.4674477 0.7551,0.4075186 1.10269,0.9948248 0.35958,0.5753203 0.35958,1.4502867 0,1.1626264 -0.6832,1.9417064 -0.6712,0.767093 -1.8578,1.222555 z m -4.21901,-7.8267542 q 0,-0.4314902 -0.16781,-0.7670938 -0.1678,-0.3356035 -0.56333,-0.5513486 -0.37156,-0.2037593 -0.79107,-0.2636885 -0.4195,-0.059929 -1.05475,-0.059929 h -1.78589 v 3.7036243 h 1.5222 q 0.74312,0 1.28249,-0.107872 0.53936,-0.119859 0.88695,-0.395533 0.37156,-0.299646 0.51539,-0.659221 0.15582,-0.359575 0.15582,-0.8989382 z"
     style="fill:#017ac1;fill-opacity:1;stroke-width:0.613675"
     id="path881" /></g></svg>
